Coordinates
version=1
nRows=15
nColumns=34
inDegrees=yes

Units are S.I. units (second, meters, Newtons, ...)
If the header above contains a line with 'inDegrees', this indicates whether rotational values are in degrees (yes) or radians (no).

endheader
time	pelvis_tilt	pelvis_list	pelvis_rotation	pelvis_tx	pelvis_ty	pelvis_tz	hip_flexion_r	hip_adduction_r	hip_rotation_r	knee_angle_r	ankle_angle_r	subtalar_angle_r	mtp_angle_r	hip_flexion_l	hip_adduction_l	hip_rotation_l	knee_angle_l	ankle_angle_l	subtalar_angle_l	mtp_angle_l	lumbar_extension	lumbar_bending	lumbar_rotation	arm_flex_r	arm_add_r	arm_rot_r	elbow_flex_r	pro_sup_r	arm_flex_l	arm_add_l	arm_rot_l	elbow_flex_l	pro_sup_l
      1.95000000	      4.70765436	      1.35439383	    -15.07888030	      0.27805421	      1.00191202	      0.18830681	     -0.73168701	     -0.78760536	     -9.98637251	      3.79624377	     11.59494115	      0.83467515	      0.00000000	      5.18277618	     -8.61701359	    -15.00347025	      8.06620378	      7.87457667	      0.86112957	      0.00000000	     -9.51520400	      1.49252316	     11.93122196	      4.21070868	    -16.00836723	     17.61048831	     16.82608395	    118.88103896	      3.63169649	    -11.22968230	     11.55739241	     30.83294776	    115.64714787
      1.96666670	      4.46922470	      1.48277536	    -14.52194524	      0.27793360	      1.00208359	      0.18796696	     -0.31683417	     -0.83978237	    -10.46321190	      4.10097081	     11.46684418	      0.56821852	      0.00000000	      5.84691701	     -8.56613056	    -14.66976367	      8.45505328	      7.71744688	      0.56904898	      0.00000000	     -9.41375145	      1.59584879	     12.82994293	      3.84628045	    -15.95756746	     18.18569883	     17.51899450	    119.29981364	      3.24533918	    -10.96671215	     11.66143479	     34.15912036	    116.01506810
      1.98333330	      4.22320404	      1.61712255	    -13.88649929	      0.27835253	      1.00221054	      0.18724786	      0.02016644	     -0.92056629	    -10.95711663	      4.32199298	     11.47624293	      0.28860649	      0.00000000	      6.56735850	     -8.46003854	    -14.31228724	      8.96224095	      7.59703552	      0.30129586	      0.00000000	     -9.25592018	      1.73563467	     13.56124342	      3.39088859	    -15.93520746	     18.49908740	     18.45746809	    119.65880054	      2.40247375	    -10.73208019	     11.32511285	     38.07452609	    116.35493967
      2.00000000	      3.98234966	      1.75564235	    -12.89870355	      0.27899083	      1.00222283	      0.18607440	      0.27672549	     -1.00281347	    -11.84286284	      4.51373553	     11.51124544	     -0.03307895	      0.00000000	      7.43413703	     -8.29132925	    -13.62602203	      9.57043286	      7.53629697	     -0.14060303	      0.00000000	     -9.09236378	      1.78554390	     13.80791927	      3.04387273	    -15.70256081	     18.43561272	     19.40359040	    119.74817918	      1.06027458	    -10.21556226	      9.17655274	     42.56766269	    117.00481286
      2.01666670	      3.97992285	      1.81067592	    -12.15620106	      0.28017705	      1.00256247	      0.18513636	      0.18767681	     -1.06764416	    -12.45199905	      4.59879369	     11.55676049	     -0.31654492	      0.00000000	      7.87924302	     -8.13502976	    -13.67395031	     10.06443478	      7.39984667	     -0.35893867	      0.00000000	     -9.11885797	      1.82507002	     14.54424585	      2.46688235	    -15.57564067	     18.27422695	     20.45657588	    119.74817918	     -0.08060457	    -10.13327143	      9.07475701	     46.86039255	    117.30874720
      2.03333330	      4.03729490	      1.88837430	    -11.02478010	      0.28119893	      1.00293842	      0.18343281	     -0.02698986	     -1.17541372	    -13.49566005	      4.60598295	     11.45395799	     -0.67555260	      0.00000000	      8.48417206	     -7.86475767	    -13.65628106	     10.75107274	      7.42514997	     -0.50012108	      0.00000000	     -9.25273149	      1.80771831	     14.75371687	      2.02451709	    -15.25938510	     17.36929703	     21.66906065	    119.74817918	     -1.29032191	     -9.77679831	      7.91450044	     51.03754706	    117.57958497
      2.05000000	      4.18193409	      2.03774281	    -10.01095168	      0.28215783	      1.00347425	      0.18204877	     -0.25860370	     -1.38481455	    -14.29881150	      4.74155031	     11.30340208	     -1.12391861	      0.00000000	      9.00311188	     -7.48410286	    -14.28838364	     11.43041338	      7.24201124	     -0.84268052	      0.00000000	     -9.46930144	      1.57536402	     15.36849382	      1.59169956	    -14.90875255	     17.28227201	     22.65262255	    119.74817918	     -1.91287241	     -9.88596525	      8.28291434	     54.50014990	    117.73880418
      2.06666670	      4.35105793	      2.25313147	     -8.52859222	      0.28340252	      1.00421523	      0.17953916	     -0.68025902	     -1.66781809	    -15.21622495	      4.72536405	     11.36874263	     -1.69299035	      0.00000000	      9.67071817	     -6.87048359	    -15.22540084	     12.17204290	      7.02527321	     -0.96659194	      0.00000000	     -9.65738566	      1.35482103	     15.34267086	      1.29470738	    -14.52115553	     16.89982193	     23.67607418	    119.74817918	     -2.73241958	     -9.98501002	      8.45775541	     57.78682038	    117.87075912
      2.08333330	      4.53941288	      2.34425277	     -6.83104833	      0.28487990	      1.00487902	      0.17712563	     -1.23289605	     -1.76470704	    -16.42656343	      4.65214336	     11.30807429	     -2.30476848	      0.00000000	     10.22903016	     -6.37993834	    -15.82944535	     12.82956499	      7.24886519	     -0.86216787	      0.00000000	     -9.84635349	      1.16386489	     15.29623902	      0.98227902	    -13.88748383	     16.33015317	     24.36558622	    119.74817918	     -3.32635904	    -10.14690365	      8.56235071	     60.22721161	    117.97911324
      2.10000000	      4.68486264	      2.41376627	     -5.25371218	      0.28623751	      1.00542126	      0.17444523	     -1.64351962	     -1.87450303	    -17.49652679	      4.74983931	     11.23123772	     -2.88780381	      0.00000000	     10.65054719	     -5.87740601	    -16.31212518	     13.20959381	      7.25300689	     -0.94413298	      0.00000000	    -10.01756153	      1.04286370	     15.42118417	      0.82552041	    -13.39779606	     16.12237647	     24.82851130	    119.74817918	     -3.74127386	    -10.44218640	      9.16419893	     62.06315203	    118.09143327
      2.11666670	      4.76563979	      2.49975872	     -3.59414571	      0.28743928	      1.00578031	      0.17185612	     -2.00815289	     -1.96149844	    -18.64035755	      4.82999719	     11.10681851	     -3.48030068	      0.00000000	     10.99934481	     -5.32919043	    -16.51921952	     13.34622066	      7.33295429	     -0.95466128	      0.00000000	    -10.13712981	      0.84207615	     15.54989055	      0.78641496	    -12.85215746	     15.97336742	     25.17503433	    119.74817918	     -4.06240065	    -10.82759258	      9.60258972	     63.35455727	    118.16934892
      2.13333330	      4.84811548	      2.56113152	     -1.79723006	      0.28880244	      1.00612980	      0.16903595	     -2.40023208	     -2.01928602	    -19.85484369	      4.95012157	     10.97752392	     -4.05824302	      0.00000000	     11.21953401	     -4.75900835	    -16.40386317	     13.27412367	      7.43303880	     -0.83305392	      0.00000000	    -10.23014963	      0.68655861	     15.67067731	      0.81319095	    -12.25892562	     15.88992349	     25.38318342	    119.74817918	     -4.30116330	    -11.26215790	      9.81378206	     64.12668295	    118.23577060
      2.15000000	      4.88687102	      2.60328794	      0.03341173	      0.29030109	      1.00637319	      0.16572113	     -2.78597923	     -2.07072154	    -21.12625611	      5.03451614	     10.87460982	     -4.61382519	      0.00000000	     11.36396164	     -4.15551214	    -16.27979536	     13.00165124	      7.50878031	     -0.71363080	      0.00000000	    -10.27184769	      0.55841576	     15.81282703	      0.93389822	    -11.70972584	     15.84523684	     25.45133618	    119.74817918	     -4.55173120	    -11.59991790	      9.73699695	     64.31967172	    118.27931544
      2.16666670	      4.87043620	      2.58666734	      1.76306062	      0.29191168	      1.00651183	      0.16229472	     -3.15196344	     -2.04220283	    -22.26437957	      5.02384198	     10.90177771	     -5.10567031	      0.00000000	     11.43334993	     -3.60036256	    -16.32114557	     12.58026155	      7.52479544	     -0.65663927	      0.00000000	    -10.25151846	      0.49979995	     16.04620912	      1.17575732	    -11.25467652	     15.85820391	     25.36497747	    119.74817918	     -4.76236787	    -11.88545193	      9.42955377	     63.82605069	    118.29179117
      2.18333330	      4.89066817	      2.59332918	      3.61590124	      0.29310502	      1.00678266	      0.15894636	     -3.58517890	     -1.98633712	    -23.59194114	      4.92135366	     10.78744667	     -5.27468850	      0.00000000	     11.40881977	     -3.02663216	    -15.31761833	     12.06440392	      7.54052660	     -0.24215031	      0.00000000	    -10.37732376	      0.35390554	     15.93004777	      1.82512717	    -10.73744942	     15.96782656	     25.15662505	    119.74817918	     -4.91364207	    -12.21717755	      8.83702825	     62.81772338	    118.32121914
